{
  "accessors": [
    {
      "bufferView": 2,
      "componentType": 5126,
      "count": 3216,
      "max": [
        0.31637704372406006,
        0.3093997538089752,
        0.3095216453075409
      ],
      "min": [
        -0.2794043719768524,
        -0.36655160784721375,
        -0.375939279794693
      ],
      "type": "VEC3"
    },
    {
      "bufferView": 2,
      "byteOffset": 38592,
      "componentType": 5126,
      "count": 3216,
      "max": [
        0.9996297955513,
        0.9990065693855286,
        0.9998939037322998
      ],
      "min": [
        -0.9996694326400757,
        -0.9902749061584473,
        -0.9898355007171631
      ],
      "type": "VEC3"
    },
    {
      "bufferView": 1,
      "componentType": 5126,
      "count": 3216,
      "max": [
        0.9983540773391724,
        0.9225307106971741
      ],
      "min": [
        0.0015767812728881836,
        0.0015707457205280662
      ],
      "type": "VEC2"
    },
    {
      "bufferView": 0,
      "componentType": 5125,
      "count": 13737,
      "type": "SCALAR"
    }
  ],
  "asset": {
    "extras": {
      "author": "EvanLegrand (https://sketchfab.com/evan4129)",
      "license": "CC-BY-4.0 (http://creativecommons.org/licenses/by/4.0/)",
      "source": "https://sketchfab.com/3d-models/garbage-bag-white-lowpoly-77d0b3be9e2d4f7db60c5bdef05188b2",
      "title": "Garbage Bag White LOWPOLY"
    },
    "generator": "Sketchfab-15.33.0",
    "version": "2.0"
  },
  "bufferViews": [
    {
      "buffer": 0,
      "byteLength": 54948,
      "name": "floatBufferViews",
      "target": 34963
    },
    {
      "buffer": 0,
      "byteLength": 25728,
      "byteOffset": 54948,
      "byteStride": 8,
      "name": "floatBufferViews",
      "target": 34962
    },
    {
      "buffer": 0,
      "byteLength": 77184,
      "byteOffset": 80676,
      "byteStride": 12,
      "name": "floatBufferViews",
      "target": 34962
    }
  ],
  "buffers": [
    {
      "byteLength": 157860,
      "uri": "scene.bin"
    }
  ],
  "extensionsUsed": [
    "KHR_materials_specular"
  ],
  "images": [
    {
      "uri": "textures/GarbageWhiteNew_Baked_baseColor.png"
    },
    {
      "uri": "textures/GarbageWhiteNew_Baked_metallicRoughness.png"
    }
  ],
  "materials": [
    {
      "doubleSided": true,
      "extensions": {
        "KHR_materials_specular": {
          "specularColorFactor": [
            1.0,
            1.0,
            1.0
          ],
          "specularFactor": 0.24357584525631865
        }
      },
      "name": "GarbageWhiteNew_Baked",
      "pbrMetallicRoughness": {
        "baseColorTexture": {
          "index": 0
        },
        "metallicFactor": 0.0,
        "metallicRoughnessTexture": {
          "index": 1
        },
        "roughnessFactor": 0.28003626746800786
      }
    }
  ],
  "meshes": [
    {
      "name": "GarbageWhiteNew_Baked_GarbageWhiteNew_Baked_0",
      "primitives": [
        {
          "attributes": {
            "NORMAL": 1,
            "POSITION": 0,
            "TEXCOORD_0": 2
          },
          "indices": 3,
          "material": 0,
          "mode": 4
        }
      ]
    }
  ],
  "nodes": [
    {
      "children": [
        1
      ],
      "matrix": [
        1.0,
        0.0,
        0.0,
        0.0,
        0.0,
        2.220446049250313e-16,
        -1.0,
        0.0,
        0.0,
        1.0,
        2.220446049250313e-16,
        0.0,
        0.0,
        0.0,
        0.0,
        1.0
      ],
      "name": "Sketchfab_model"
    },
    {
      "children": [
        2
      ],
      "matrix": [
        0.009999999776482582,
        0.0,
        0.0,
        0.0,
        0.0,
        0.0,
        0.009999999776482582,
        0.0,
        0.0,
        -0.009999999776482582,
        0.0,
        0.0,
        0.0,
        0.0,
        0.0,
        1.0
      ],
      "name": "GarbageBagWhite.fbx"
    },
    {
      "children": [
        3
      ],
      "name": "RootNode"
    },
    {
      "children": [
        4
      ],
      "matrix": [
        98.42446585392676,
        -17.63199644222412,
        -1.3186162101098038,
        0.0,
        0.34561316332427955,
        9.374824012283963,
        -99.55897070904182,
        0.0,
        17.677853471142047,
        97.98583529457419,
        9.288059668120287,
        0.0,
        5.914999008178711,
        35.60927200317383,
        103.97006225585938,
        1.0
      ],
      "name": "GarbageWhiteNew_Baked"
    },
    {
      "mesh": 0,
      "name": "GarbageWhiteNew_Baked_GarbageWhiteNew_Baked_0"
    }
  ],
  "samplers": [
    {
      "magFilter": 9729,
      "minFilter": 9987,
      "wrapS": 10497,
      "wrapT": 10497
    }
  ],
  "scene": 0,
  "scenes": [
    {
      "name": "Sketchfab_Scene",
      "nodes": [
        0
      ]
    }
  ],
  "textures": [
    {
      "sampler": 0,
      "source": 0
    },
    {
      "sampler": 0,
      "source": 1
    }
  ]
}
